HIERARCHY
ROOT RootJoint
{
    OFFSET   0.000000   0.000000   0.000000
    CHANNELS 6 Xposition Yposition Zposition Xrotation Yrotation Zrotation
    JOINT pelvis_lowerback
    {
        OFFSET   0.000000   0.093605   0.000000
        CHANNELS 3 Xrotation Yrotation Zrotation
        JOINT lowerback_torso
        {
            OFFSET   0.000000   0.100000   0.000000
            CHANNELS 3 Xrotation Yrotation Zrotation
            JOINT torso_head
            {
                OFFSET   0.000000   0.282350   0.000000
                CHANNELS 3 Xrotation Yrotation Zrotation
                End Site
                {
                    OFFSET   0.000000   0.192650   0.000000
                }
            }
            JOINT rTorso_Clavicle
            {
                OFFSET  -0.001000   0.157500   0.000000
                CHANNELS 3 Xrotation Yrotation Zrotation
                JOINT rShoulder
                {
                    OFFSET  -0.117647   0.000000   0.000000
                    CHANNELS 3 Xrotation Yrotation Zrotation
                    JOINT rElbow
                    {
                        OFFSET  -0.245000   0.000000   0.000000
                        CHANNELS 3 Xrotation Yrotation Zrotation
                        JOINT rWrist
                        {
                            OFFSET  -0.240000   0.000000   0.000000
                            CHANNELS 3 Xrotation Yrotation Zrotation
                            End Site
                            {
                                OFFSET  -0.116353  -0.002500   0.000000
                            }
                        }
                    }
                }
            }
            JOINT lTorso_Clavicle
            {
                OFFSET   0.001000   0.157500   0.000000
                CHANNELS 3 Xrotation Yrotation Zrotation
                JOINT lShoulder
                {
                    OFFSET   0.117647   0.000000   0.000000
                    CHANNELS 3 Xrotation Yrotation Zrotation
                    JOINT lElbow
                    {
                        OFFSET   0.245000   0.000000   0.000000
                        CHANNELS 3 Xrotation Yrotation Zrotation
                        JOINT lWrist
                        {
                            OFFSET   0.240000   0.000000   0.000000
                            CHANNELS 3 Xrotation Yrotation Zrotation
                            End Site
                            {
                                OFFSET   0.116353  -0.002500   0.000000
                            }
                        }
                    }
                }
            }
        }
    }
    JOINT rHip
    {
        OFFSET  -0.100000  -0.051395   0.000000
        CHANNELS 3 Xrotation Yrotation Zrotation
        JOINT rKnee
        {
            OFFSET   0.000000  -0.410000   0.000000
            CHANNELS 3 Xrotation Yrotation Zrotation
            JOINT rAnkle
            {
                OFFSET   0.000000  -0.390000   0.000000
                CHANNELS 3 Xrotation Yrotation Zrotation
                JOINT rToeJoint
                {
                    OFFSET   0.000000  -0.050000   0.130000
                    CHANNELS 3 Xrotation Yrotation Zrotation
                    End Site
                    {
                        OFFSET  -0.010000   0.002000   0.060000
                    }
                }
            }
        }
    }
    JOINT lHip
    {
        OFFSET   0.100000  -0.051395   0.000000
        CHANNELS 3 Xrotation Yrotation Zrotation
        JOINT lKnee
        {
            OFFSET   0.000000  -0.410000   0.000000
            CHANNELS 3 Xrotation Yrotation Zrotation
            JOINT lAnkle
            {
                OFFSET   0.000000  -0.390000   0.000000
                CHANNELS 3 Xrotation Yrotation Zrotation
                JOINT lToeJoint
                {
                    OFFSET   0.000000  -0.050000   0.130000
                    CHANNELS 3 Xrotation Yrotation Zrotation
                    End Site
                    {
                        OFFSET   0.010000   0.002000   0.060000
                    }
                }
            }
        }
    }
}
MOTION
Frames: 14
Frame Time:   0.008333
 -2.252599   0.874534   4.080037  -8.900293  53.811076   6.951972  12.018040  -0.979944  -4.013960   0.597165  -1.625192  -4.331361  -1.108100   1.623579  -1.041100   3.086630  -2.471732   4.970026  14.078527   8.197282  45.647834   0.008706  59.197987  -0.009909   0.308597   4.906268  -0.884425  -4.888267   2.160589  -8.148274 -37.761366  10.394727 -29.805206   0.095708 -65.309348   0.084312  -5.732880  -4.296560  23.700017  -6.287727 -12.551473  -9.704219  35.337271  -0.000467   0.000066 -24.016935  -9.921094  -2.771023   1.615771  -0.000393   0.000025  -9.816523   4.122971  28.413981  16.004604   0.000008   0.000063  23.576940   3.350849  -8.102470 -13.763067  -0.000326   0.001492
 -2.253625   0.874326   4.079583  -8.658067  53.625850   6.686601  12.074717  -0.907165  -4.019545   0.575821  -1.587218  -4.303811  -1.127578   1.823439  -1.024162   3.087185  -2.264676   4.896983  14.256389   8.557609  45.678761   0.010980  59.660005  -0.012681   0.302638   4.931251  -0.871086  -5.146185   1.873958  -8.005684 -38.819994  10.491498 -28.920837   0.093968 -64.244005   0.081681  -5.828199  -4.362946  24.058361  -6.581482 -12.356661  -9.623463  35.501526  -0.000430   0.000044 -23.967715  -9.897724  -2.659338   1.555450  -0.000241   0.000016  -9.937486   4.167294  28.533953  15.997185   0.000010   0.000058  23.668886   3.353484  -8.187891 -13.966156  -0.000283   0.001338
 -2.254614   0.874137   4.079038  -8.400384  53.436745   6.401987  12.140409  -0.841125  -4.024161   0.554162  -1.549802  -4.265802  -1.146917   2.012244  -1.007132   3.083993  -2.063088   4.822618  14.418777   8.903924  45.705798   0.012639  60.105137  -0.014649   0.301084   5.037681  -0.823494  -5.408601   1.596268  -7.831865 -39.835871  10.554109 -28.062466   0.090226 -63.231983   0.077302  -5.957211  -4.333318  24.457272  -6.880871 -12.168701  -9.540347  35.646369  -0.000393   0.000012 -23.905289  -9.864195  -2.550257   1.502606  -0.000132   0.000010 -10.057424   4.206987  28.654262  15.980560   0.000015   0.000066  23.750498   3.362809  -8.266329 -14.205226  -0.000240   0.001262
 -2.255513   0.873935   4.078430  -8.147682  53.255099   6.126431  12.210674  -0.782822  -4.031572   0.538213  -1.515828  -4.221992  -1.162537   2.188131  -0.992056   3.079686  -1.872927   4.750217  14.568715   9.229265  45.729736   0.013683  60.523604  -0.015830   0.300239   5.166450  -0.770845  -5.662826   1.333050  -7.644551 -40.796728  10.587615 -27.247819   0.084868 -62.290147   0.071699  -6.082508  -4.302455  24.857691  -7.178757 -11.991062  -9.468820  35.775062  -0.000351  -0.000017 -23.757028  -9.829842  -2.453967   1.029588   0.000305  -0.000014 -10.169726   4.243509  28.762966  15.961104   0.000019   0.000075  23.818979   3.370317  -8.341450 -14.520865  -0.000219   0.001277
 -2.256321   0.873772   4.077748  -7.894653  53.078719   5.846812  12.283422  -0.728634  -4.029821   0.526167  -1.483893  -4.172908  -1.176054   2.352205  -0.978691   3.074866  -1.693962   4.683339  14.707735   9.533239  45.750222   0.014245  60.913778  -0.016381   0.299554   5.292472  -0.722361  -5.904318   1.084964  -7.460566 -41.699640  10.601041 -26.482071   0.078509 -61.414260   0.065465  -6.195977  -4.289736  25.248941  -7.462151 -11.822092  -9.396729  35.889681  -0.000307  -0.000041 -23.701166  -9.794592  -2.355376   1.076493   0.000199  -0.000011 -10.278504   4.276234  28.867806  15.937315   0.000023   0.000088  23.878751   3.378583  -8.412073 -14.862405  -0.000212   0.001324
 -2.257035   0.873637   4.076997  -7.644028  52.907060   5.572273  12.357406  -0.678827  -4.025404   0.518535  -1.454333  -4.121246  -1.187670   2.505285  -0.966134   3.070724  -1.526333   4.621186  14.837440   9.817366  45.769065   0.014432  61.277995  -0.016461   0.298789   5.412925  -0.675443  -6.131788   0.851592  -7.282517 -42.545705  10.599248 -25.764623   0.071696 -60.599129   0.059049  -6.299251  -4.291337  25.626351  -7.735800 -11.660059  -9.332144  35.983191  -0.000262  -0.000059 -23.634066  -9.758013  -2.264054   1.112319   0.000130  -0.000008 -10.382456   4.306069  28.962291  15.911925   0.000025   0.000101  23.930040   3.385619  -8.479186 -15.231394  -0.000222   0.001405
 -2.257657   0.873521   4.076190  -7.398692  52.740943   5.306181  12.432148  -0.633665  -4.019215   0.515373  -1.427577  -4.068785  -1.197624   2.648106  -0.954257   3.067794  -1.369886   4.563701  14.958971  10.082655  45.786674   0.014325  61.617791  -0.016187   0.297919   5.526937  -0.628944  -6.345129   0.632316  -7.112652 -43.337233  10.585878 -25.093758   0.064810 -59.840075   0.052756  -6.394066  -4.303206  25.988413  -7.999463 -11.504458  -9.275995  36.060524  -0.000219  -0.000071 -23.559677  -9.721265  -2.179837   1.139808   0.000084  -0.000006 -10.481011   4.333235  29.046207  15.886582   0.000025   0.000111  23.972930   3.390241  -8.543509 -15.631561  -0.000250   0.001515
 -2.258301   0.873382   4.075311  -7.077422  52.513505   4.991198  12.461509  -0.591859  -4.035481   0.513126  -1.402224  -4.032499  -1.229065   2.822782  -0.951858   3.059543  -1.182034   4.505313  15.165896  10.381171  45.705336   0.015849  62.132474  -0.018130   0.276808   5.551583  -0.538443  -6.598088   0.351288  -6.923294 -44.250724  10.533689 -24.213106   0.063051 -58.862218   0.050283  -6.508135  -4.301732  26.260328  -8.339065 -11.303805  -9.240928  36.165111  -0.000190  -0.000114 -23.470787  -9.656846  -2.032900   1.146056   0.000060  -0.000005 -10.597965   4.414610  29.118057  15.844870   0.000026   0.000148  23.973876   3.449963  -8.621012 -15.943786  -0.000270   0.001445
 -2.258886   0.873248   4.074393  -6.754820  52.281689   4.669599  12.491791  -0.559261  -4.053877   0.503388  -1.378098  -3.991506  -1.258823   2.985565  -0.951457   3.045810  -1.002799   4.432905  15.355194  10.663098  45.617601   0.016526  62.624588  -0.019115   0.259641   5.644100  -0.434017  -6.855165   0.085362  -6.693976 -45.130000  10.451871 -23.355733   0.060455 -57.940534   0.047272  -6.643663  -4.242378  26.571360  -8.674937 -11.110346  -9.202384  36.255541  -0.000165  -0.000149 -23.373970  -9.582825  -1.891478   1.147114   0.000047  -0.000004 -10.707407   4.493746  29.192379  15.797831   0.000028   0.000189  23.968234   3.512995  -8.692670 -16.315932  -0.000282   0.001462
 -2.259384   0.873129   4.073439  -6.440734  52.055346   4.354334  12.521054  -0.531955  -4.071879   0.490905  -1.356671  -3.946660  -1.285177   3.136952  -0.952759   3.030247  -0.835731   4.354909  15.530393  10.924105  45.527980   0.016581  63.085537  -0.019330   0.243713   5.751541  -0.345865  -7.104930  -0.166404  -6.450331 -45.962167  10.348136 -22.542376   0.056978 -57.085208   0.043799  -6.767385  -4.199716  26.890066  -8.997390 -10.926264  -9.165327  36.329041  -0.000140  -0.000169 -23.272189  -9.507317  -1.761086   1.145910   0.000039  -0.000003 -10.809632   4.568195  29.262608  15.750114   0.000027   0.000223  23.956737   3.572982  -8.760537 -16.737774  -0.000306   0.001538
 -2.259789   0.873023   4.072452  -6.138369  51.836936   4.050724  12.548545  -0.508816  -4.088400   0.477160  -1.338456  -3.899897  -1.308897   3.278055  -0.954914   3.014932  -0.680731   4.275678  15.693886  11.165432  45.439305   0.016221  63.515848  -0.019001   0.228561   5.857081  -0.272908  -7.343505  -0.405105  -6.205694 -46.744580  10.230343 -21.777650   0.052931 -56.291489   0.040118  -6.875167  -4.182527  27.203129  -9.304298 -10.750781  -9.132823  36.387057  -0.000115  -0.000174 -23.167154  -9.433206  -1.640144   1.143361   0.000033  -0.000003 -10.904925   4.638195  29.325768  15.703925   0.000025   0.000247  23.939860   3.628071  -8.825482 -17.203307  -0.000351   0.001653
 -2.260104   0.872930   4.071438  -5.848966  51.626962   3.760717  12.574208  -0.489360  -4.103092   0.462953  -1.323451  -3.852487  -1.330607   3.409672  -0.957368   3.000708  -0.536967   4.197919  15.846986  11.388931  45.353399   0.015592  63.917232  -0.018300   0.214038   5.956737  -0.210478  -7.569255  -0.631275  -5.967195 -47.477510  10.104247 -21.062021   0.048591 -55.554073   0.036411  -6.969566  -4.185340  27.505755  -9.595450 -10.583258  -9.105782  36.431693  -0.000093  -0.000170 -23.060427  -9.361359  -1.528339   1.140264   0.000029  -0.000002 -10.993486   4.704084  29.381236  15.660289   0.000021   0.000262  23.918087   3.677771  -8.887926 -17.707318  -0.000418   0.001794
 -2.260336   0.872847   4.070405  -5.572933  51.425443   3.484779  12.598284  -0.473264  -4.116030   0.448882  -1.311469  -3.805288  -1.350688   3.532466  -0.959819   2.987875  -0.403506   4.123311  15.990541  11.596341  45.271368   0.014794  64.291577  -0.017356   0.200070   6.050042  -0.154976  -7.781643  -0.845364  -5.738684 -48.162534   9.973911 -20.394233   0.044170 -54.868251   0.032802  -7.053516  -4.202070  27.796119  -9.871247 -10.423244  -9.084108  36.464969  -0.000073  -0.000158 -22.953190  -9.292067  -1.425132   1.137116   0.000025  -0.000002 -11.075629   4.766130  29.429383  15.619603   0.000017   0.000268  23.891937   3.722167  -8.948083 -18.244408  -0.000504   0.001948
 -2.260533   0.872760   4.069354  -5.261439  51.158674   3.190360  12.587032  -0.456480  -4.147146   0.438308  -1.292379  -3.776334  -1.392673   3.691829  -0.962475   2.979927  -0.247125   4.076021  16.252980  11.831634  45.088976   0.015872  64.841274  -0.018822   0.173153   6.071829  -0.105598  -8.013119  -1.109484  -5.501402 -48.922772   9.798888 -19.543960   0.043252 -53.974041   0.031531  -7.144332  -4.232533  27.991953 -10.186602 -10.228815  -9.077369  36.508717  -0.000059  -0.000170 -22.834523  -9.185762  -1.280335   1.123935   0.000031  -0.000002 -11.148869   4.893127  29.466596  15.558989   0.000009   0.000311  23.784217   3.832190  -8.991877 -18.578329  -0.000451   0.001795
